HIERARCHY
ROOT joint_Root
{
	OFFSET 0.0 0.0 0.0
	CHANNELS 6 Xposition Yposition Zposition Zrotation Xrotation Yrotation 
	JOINT Hips
	{
		OFFSET -17.1583 93.1646 452.98
		CHANNELS 6 Xposition Yposition Zposition Zrotation Xrotation Yrotation 
		JOINT Spine
		{
			OFFSET 15.7357 0.0 0.0
			CHANNELS 6 Xposition Yposition Zposition Zrotation Xrotation Yrotation 
			JOINT Chest
			{
				OFFSET 8.98455 -0.406207 0.0
				CHANNELS 6 Xposition Yposition Zposition Zrotation Xrotation Yrotation 
				JOINT Neck
				{
					OFFSET 16.3773 0.0 0.0
					CHANNELS 6 Xposition Yposition Zposition Zrotation Xrotation Yrotation 
					JOINT Head
					{
						OFFSET 6.45672 0.0 0.0
						CHANNELS 6 Xposition Yposition Zposition Zrotation Xrotation Yrotation 
						End Site
						{
							OFFSET 0.0 0.0 0.0
						}
					}
				}
				JOINT Shoulder_L
				{
					OFFSET 12.9942 -0.242716 4.98039
					CHANNELS 6 Xposition Yposition Zposition Zrotation Xrotation Yrotation 
					JOINT UpperArm_L
					{
						OFFSET 5.34809 0.0 0.0
						CHANNELS 6 Xposition Yposition Zposition Zrotation Xrotation Yrotation 
						JOINT LowerArm_L
						{
							OFFSET 24.3286 1.87007e-05 0.0
							CHANNELS 6 Xposition Yposition Zposition Zrotation Xrotation Yrotation 
							JOINT Hand_L
							{
								OFFSET 22.2916 0.0 0.0
								CHANNELS 6 Xposition Yposition Zposition Zrotation Xrotation Yrotation 
								End Site
								{
									OFFSET 0.0 0.0 0.0
								}
							}
						}
					}
				}
				JOINT Shoulder_R
				{
					OFFSET 12.9945 -0.242716 -4.98039
					CHANNELS 6 Xposition Yposition Zposition Zrotation Xrotation Yrotation 
					JOINT UpperArm_R
					{
						OFFSET -5.34813 0.0 0.0
						CHANNELS 6 Xposition Yposition Zposition Zrotation Xrotation Yrotation 
						JOINT LowerArm_R
						{
							OFFSET -24.3289 0.000322201 0.0
							CHANNELS 6 Xposition Yposition Zposition Zrotation Xrotation Yrotation 
							JOINT Hand_R
							{
								OFFSET -22.2915 -0.000108084 0.0
								CHANNELS 6 Xposition Yposition Zposition Zrotation Xrotation Yrotation 
								End Site
								{
									OFFSET 0.0 0.0 0.0
								}
							}
						}
					}
				}
			}
		}
		JOINT UpperLeg_L
		{
			OFFSET -2.19248 -6.46944 0.0
			CHANNELS 6 Xposition Yposition Zposition Zrotation Xrotation Yrotation 
			JOINT LowerLeg_L
			{
				OFFSET 39.0811 0.0 -1.23785e-05
				CHANNELS 6 Xposition Yposition Zposition Zrotation Xrotation Yrotation 
				JOINT Foot_L
				{
					OFFSET 40.9854 0.0 -1.26872e-05
					CHANNELS 6 Xposition Yposition Zposition Zrotation Xrotation Yrotation 
					JOINT Toes_L
					{
						OFFSET 11.7543 0.0 0.0
						CHANNELS 6 Xposition Yposition Zposition Zrotation Xrotation Yrotation 
						End Site
						{
							OFFSET 0.0 0.0 0.0
						}
					}
				}
			}
		}
		JOINT UpperLeg_R
		{
			OFFSET -2.19251 6.46944 0.0
			CHANNELS 6 Xposition Yposition Zposition Zrotation Xrotation Yrotation 
			JOINT LowerLeg_R
			{
				OFFSET -39.0811 -0.00228153 -0.0401928
				CHANNELS 6 Xposition Yposition Zposition Zrotation Xrotation Yrotation 
				JOINT Foot_R
				{
					OFFSET -40.9854 0.0 0.0
					CHANNELS 6 Xposition Yposition Zposition Zrotation Xrotation Yrotation 
					JOINT Toes_R
					{
						OFFSET -11.7543 0.0 0.0
						CHANNELS 6 Xposition Yposition Zposition Zrotation Xrotation Yrotation 
						End Site
						{
							OFFSET 0.0 0.0 0.0
						}
					}
				}
			}
		}
	}
}
MOTION
Frames:	5
Frame Time:	0.0333333
0.000000 0.000000 0.000000 0.000000 0.000000 -0.000000 -0.438279 93.199900 -3.873270 87.049200 -2.034460 1.347110 15.735700 0.000005 -0.000001 83.981200 87.488900 -82.021500 8.984550 -0.406207 -0.000000 -2.756500 -0.706263 3.902620 16.377300 -0.000001 -0.000001 3.320670 3.763440 -0.437960 6.456720 -0.000001 -0.000000 2.998710 5.605890 -6.474370 12.994200 -0.242716 4.980390 -92.711800 8.314990 -71.865300 5.348090 -0.000007 -0.000001 -73.495600 13.666200 3.627330 24.328600 0.000019 0.000005 11.820100 22.429900 -28.744100 22.291600 -0.000001 0.000005 -1.417370 4.991430 7.501160 12.994500 -0.242716 -4.980390 89.075900 2.972990 -72.725000 -5.348130 -0.000001 -0.000004 -72.648000 17.667700 -0.268881 -24.328900 0.000322 -0.000009 0.949090 2.296930 -22.479900 -22.291500 -0.000108 -0.000004 3.690920 5.225840 2.062920 -2.192480 -6.469440 -0.000000 -176.884000 0.439705 -4.647470 39.081100 -0.000007 -0.000012 0.176145 -0.488735 19.819900 40.985400 -0.000006 -0.000013 2.065140 6.820460 -69.254600 11.754300 -0.000000 0.000003 0.000467 0.159345 -10.114200 -2.192510 6.469440 -0.000001 -175.298000 6.972350 179.728000 -39.081100 -0.002282 -0.040193 0.039785 -0.159684 12.858600 -40.985400 0.000008 0.000006 0.224622 2.161940 -67.286700 -11.754300 -0.000006 -0.000006 -0.009127 0.264663 -5.822580
0.000000 0.000000 0.000000 0.000000 0.000000 -0.000000 -0.472088 93.210800 -3.903190 87.048800 -1.972090 1.181400 15.735700 0.000005 -0.000001 83.572100 87.491100 -81.600700 8.984550 -0.406207 -0.000000 -2.764130 -0.742590 3.925110 16.377300 -0.000001 -0.000001 3.028910 3.670380 -0.328177 6.456720 -0.000001 -0.000000 2.695950 5.512630 -6.279890 12.994200 -0.242716 4.980390 -92.728800 8.345910 -71.821400 5.348090 -0.000007 -0.000001 -73.175900 12.169500 3.752160 24.328600 0.000019 0.000005 12.356100 22.283700 -30.015100 22.291600 -0.000001 0.000005 -1.498240 4.985990 7.615940 12.994500 -0.242716 -4.980390 89.059700 3.004760 -72.614000 -5.348130 -0.000001 -0.000004 -72.145500 15.850900 0.005717 -24.328900 0.000322 -0.000009 1.439610 3.202120 -24.238800 -22.291500 -0.000108 -0.000004 3.102040 5.208480 2.505870 -2.192480 -6.469440 -0.000000 -176.856000 0.461054 -4.810760 39.081100 -0.000007 -0.000012 0.175589 -0.488836 19.758500 40.985400 -0.000006 -0.000013 2.031880 6.830540 -69.218000 11.754300 -0.000000 0.000003 0.000419 0.160253 -10.077400 -2.192510 6.469440 -0.000001 -175.254000 6.978080 179.576000 -39.081100 -0.002282 -0.040193 0.038672 -0.155758 12.782600 -40.985400 0.000008 0.000006 0.092411 2.129810 -67.196800 -11.754300 -0.000006 -0.000006 -0.008892 0.262830 -5.897480
0.000000 0.000000 0.000000 0.000000 0.000000 -0.000000 -0.506071 93.214100 -3.924140 87.065100 -1.909920 1.064470 15.735700 0.000005 -0.000001 83.134900 87.476600 -81.155500 8.984550 -0.406207 -0.000000 -2.738980 -0.784394 3.940420 16.377300 -0.000001 -0.000001 2.813110 3.540550 -0.154482 6.456720 -0.000001 -0.000000 2.239050 5.474920 -6.059820 12.994200 -0.242716 4.980390 -92.749000 8.355200 -71.714600 5.348090 -0.000007 -0.000001 -72.769400 10.580800 3.971130 24.328600 0.000019 0.000005 12.983700 21.758700 -31.881000 22.291600 -0.000001 0.000005 -1.429130 4.973210 7.883940 12.994500 -0.242716 -4.980390 89.063300 2.972690 -72.501200 -5.348130 -0.000001 -0.000004 -71.590400 13.816500 0.475343 -24.328900 0.000322 -0.000009 1.923730 3.807260 -26.844400 -22.291500 -0.000108 -0.000004 2.759290 5.185550 3.078930 -2.192480 -6.469440 -0.000000 -176.852000 0.529234 -4.943380 39.081100 -0.000007 -0.000012 0.175198 -0.488258 19.739400 40.985400 -0.000006 -0.000013 2.002180 6.813760 -69.204000 11.754300 -0.000000 0.000003 0.000351 0.161494 -10.027000 -2.192510 6.469440 -0.000001 -175.218000 6.944920 179.476000 -39.081100 -0.002282 -0.040193 0.039211 -0.159011 12.714500 -40.985400 0.000008 0.000006 0.248996 2.054030 -67.188500 -11.754300 -0.000006 -0.000006 -0.009090 0.264378 -5.834220
0.000000 0.000000 0.000000 0.000000 0.000000 -0.000000 -0.545887 93.219900 -3.928690 87.039800 -1.865120 0.974224 15.735700 0.000005 -0.000001 82.834800 87.442600 -80.828400 8.984550 -0.406207 -0.000000 -2.673680 -0.820449 3.993780 16.377300 -0.000001 -0.000001 2.587580 3.414180 0.061659 6.456720 -0.000001 -0.000000 1.709980 5.424200 -5.748150 12.994200 -0.242716 4.980390 -92.777900 8.385650 -71.596800 5.348090 -0.000007 -0.000001 -72.264300 8.690670 4.287950 24.328600 0.000019 0.000005 14.140400 21.437200 -34.578900 22.291600 -0.000001 0.000005 -1.204780 4.971170 7.926540 12.994500 -0.242716 -4.980390 89.078400 2.900120 -72.362700 -5.348130 -0.000001 -0.000004 -71.015500 11.157500 1.064930 -24.328900 0.000322 -0.000009 2.562050 4.402180 -30.250700 -22.291500 -0.000108 -0.000004 2.241800 5.168620 3.494410 -2.192480 -6.469440 -0.000000 -176.785000 0.580538 -5.037210 39.081100 -0.000007 -0.000012 0.173602 -0.484380 19.718000 40.985400 -0.000006 -0.000013 1.966710 6.845370 -69.170200 11.754300 -0.000000 0.000003 0.000393 0.160732 -10.057900 -2.192510 6.469440 -0.000001 -175.170000 7.021920 179.394000 -39.081100 -0.002282 -0.040193 0.037245 -0.150712 12.680600 -40.985400 0.000008 0.000006 0.021659 2.069640 -67.116600 -11.754300 -0.000006 -0.000006 -0.008781 0.261961 -5.932980
0.000000 0.000000 0.000000 0.000000 0.000000 -0.000000 -0.594137 93.229000 -3.948720 87.066800 -1.821230 0.903989 15.735700 0.000005 -0.000001 82.578800 87.406100 -80.557700 8.984550 -0.406207 -0.000000 -2.603630 -0.852629 4.022930 16.377300 -0.000001 -0.000001 2.410850 3.254010 0.328419 6.456720 -0.000001 -0.000000 1.156480 5.347530 -5.402300 12.994200 -0.242716 4.980390 -92.800200 8.394520 -71.477300 5.348090 -0.000007 -0.000001 -71.701600 6.623840 4.829830 24.328600 0.000019 0.000005 15.921700 21.004200 -38.514800 22.291600 -0.000001 0.000005 -1.358540 4.950490 8.354990 12.994500 -0.242716 -4.980390 89.102700 2.795470 -72.196500 -5.348130 -0.000001 -0.000004 -70.416200 8.310290 1.745880 -24.328900 0.000322 -0.000009 3.352810 4.911580 -34.389800 -22.291500 -0.000108 -0.000004 2.327650 5.151780 3.900650 -2.192480 -6.469440 -0.000000 -176.783000 0.614915 -5.077900 39.081100 -0.000007 -0.000012 0.173714 -0.486652 19.644700 40.985400 -0.000006 -0.000013 1.936420 6.873640 -69.199500 11.754300 -0.000000 0.000003 0.000429 0.160063 -10.085100 -2.192510 6.469440 -0.000001 -175.146000 6.958770 179.348000 -39.081100 -0.002282 -0.040193 0.037435 -0.152469 12.607100 -40.985400 0.000008 0.000006 0.074815 1.973380 -67.139700 -11.754300 -0.000006 -0.000006 -0.009147 0.264814 -5.816390
